<?xml version="1.0" encoding="utf-8"?>
<!-- Generator: Adobe Illustrator 14.0.0, SVG Export Plug-In . SVG Version: 6.00 Build 43363)  -->
<!DOCTYPE svg PUBLIC "-//W3C//DTD SVG 1.1//EN" "http://www.w3.org/Graphics/SVG/1.1/DTD/svg11.dtd">
<svg version="1.1" id="Layer_1" xmlns="http://www.w3.org/2000/svg" xmlns:xlink="http://www.w3.org/1999/xlink" x="0px" y="0px"
	 width="612px" height="792px" viewBox="0 0 612 792" enable-background="new 0 0 612 792" xml:space="preserve">
<g>
	<polygon fill-rule="evenodd" clip-rule="evenodd" fill="#FFFFFF" points="209,300 401.756,300 401.756,492.756 209,492.756 
		209,300 	"/>
	<path fill-rule="evenodd" clip-rule="evenodd" fill="#47668A" d="M247.25,384.885c-1.035-1.151-2.1-1.985-3.279-2.561
		c-1.151-0.575-2.417-0.834-3.797-0.834c-2.158,0-3.97,0.662-5.495,1.956c-1.496,1.323-2.417,3.078-2.762,5.293
		c-0.316,2.129,0.029,3.855,1.093,5.121c1.036,1.294,2.618,1.927,4.718,1.927c1.266,0,2.589-0.288,3.97-0.806
		c1.381-0.546,2.935-1.409,4.661-2.589l-2.532,13.723c-1.524,0.575-3.021,1.035-4.488,1.323s-2.906,0.432-4.344,0.432
		c-1.784,0-3.481-0.201-5.035-0.604c-1.611-0.402-2.992-0.949-4.2-1.697c-2.963-1.841-5.035-4.2-6.243-7.048
		c-1.208-2.848-1.553-6.1-0.978-9.782c0.432-2.733,1.266-5.265,2.589-7.595c1.294-2.33,2.963-4.373,5.034-6.127
		c2.072-1.813,4.402-3.165,6.905-4.085c2.532-0.92,5.178-1.38,7.969-1.38c1.467,0,2.906,0.144,4.287,0.46
		c1.41,0.288,2.733,0.748,3.999,1.381L247.25,384.885L247.25,384.885z M265.346,393.63h5.438l-0.46-4.114
		c-0.23-2.1-0.374-3.711-0.403-4.862c-0.029-1.122,0.029-2.187,0.115-3.165h-0.201c-0.23,0.978-0.518,2.042-0.863,3.165
		c-0.403,1.151-1.007,2.762-1.87,4.862L265.346,393.63L265.346,393.63z M245.898,406.893l18.614-36.479h14.614l7.135,36.479h-14.097
		l-0.46-4.574h-9.896l-1.841,4.574H245.898L245.898,406.893z M289.627,406.893l5.61-36.479h13.32l-5.581,36.479H289.627
		L289.627,406.893z"/>
	<path fill-rule="evenodd" clip-rule="evenodd" fill="#47668A" d="M370.554,393.63h5.437l-0.488-4.114
		c-0.202-2.1-0.346-3.711-0.374-4.862c-0.029-1.122,0.028-2.187,0.114-3.165h-0.201c-0.201,0.978-0.518,2.042-0.863,3.165
		c-0.373,1.151-1.007,2.762-1.869,4.862L370.554,393.63L370.554,393.63z M351.105,406.893l18.613-36.479h14.615l7.135,36.479
		h-14.097l-0.461-4.574h-9.896l-1.841,4.574H351.105L351.105,406.893z"/>
	<path fill-rule="evenodd" clip-rule="evenodd" fill="#47668A" d="M225.818,415.438c-0.46-0.489-0.978-0.863-1.496-1.122
		c-0.518-0.23-1.122-0.346-1.755-0.346c-0.489,0-1.007,0.087-1.496,0.316c-0.489,0.202-0.892,0.489-1.266,0.863
		c-0.374,0.374-0.633,0.806-0.834,1.266c-0.173,0.489-0.288,1.007-0.288,1.582c0,0.461,0.058,0.863,0.172,1.237
		c0.115,0.403,0.288,0.748,0.489,1.064c0.403,0.547,0.892,0.979,1.438,1.266c0.575,0.288,1.179,0.461,1.841,0.461
		c0.633,0,1.208-0.145,1.727-0.403c0.546-0.229,1.007-0.633,1.467-1.122v1.525c-0.489,0.345-1.007,0.604-1.553,0.776
		c-0.576,0.173-1.151,0.288-1.726,0.288c-0.518,0-1.007-0.086-1.496-0.23c-0.489-0.173-0.949-0.374-1.381-0.661
		c-0.69-0.519-1.237-1.094-1.611-1.813c-0.374-0.72-0.546-1.525-0.546-2.359c0-0.748,0.115-1.438,0.374-2.043
		c0.23-0.633,0.604-1.179,1.122-1.668c0.518-0.489,1.064-0.834,1.64-1.064c0.604-0.259,1.266-0.374,1.985-0.374
		c0.547,0,1.094,0.086,1.611,0.259c0.546,0.173,1.064,0.432,1.582,0.806V415.438L225.818,415.438z M231.083,415.293l-1.553,3.567
		h3.107L231.083,415.293L231.083,415.293z M231.083,412.733l4.431,10.098h-1.266l-1.266-2.992h-3.769l-1.266,2.992h-1.266
		L231.083,412.733L231.083,412.733z M236.75,422.831v-9.725h1.15v9.725H236.75L236.75,422.831z M239.253,422.831l2.992-5.179
		l-2.791-4.546h1.41l2.071,3.712l1.985-3.712h1.323l-2.733,4.661l3.078,5.063h-1.352l-2.388-4.2l-2.272,4.2H239.253L239.253,422.831
		z M250.991,415.293l-1.525,3.567h3.078L250.991,415.293L250.991,415.293z M250.991,412.733l4.43,10.098h-1.266l-1.237-2.992h-3.798
		l-1.266,2.992h-1.266L250.991,412.733L250.991,412.733z"/>
	<path fill-rule="evenodd" clip-rule="evenodd" fill="#47668A" d="M260.283,422.831v-9.725h5.092v1.064h-3.941v2.791h3.941v1.064
		h-3.941v3.711h3.941v1.094H260.283L260.283,422.831z M274.639,415.438c-0.46-0.489-0.978-0.863-1.496-1.122
		c-0.518-0.23-1.093-0.346-1.726-0.346c-0.518,0-1.036,0.087-1.525,0.316c-0.489,0.202-0.892,0.489-1.266,0.863
		s-0.633,0.806-0.834,1.266c-0.172,0.489-0.259,1.007-0.259,1.582c0,0.461,0.058,0.863,0.144,1.237
		c0.115,0.403,0.288,0.748,0.518,1.064c0.374,0.547,0.863,0.979,1.41,1.266c0.575,0.288,1.208,0.461,1.841,0.461
		s1.208-0.145,1.726-0.403c0.547-0.229,1.036-0.633,1.467-1.122v1.525c-0.489,0.345-1.007,0.604-1.554,0.776
		c-0.546,0.173-1.122,0.288-1.726,0.288c-0.518,0-1.007-0.086-1.496-0.23c-0.489-0.173-0.949-0.374-1.352-0.661
		c-0.719-0.519-1.266-1.094-1.64-1.813c-0.374-0.72-0.547-1.525-0.547-2.359c0-0.748,0.115-1.438,0.374-2.043
		c0.23-0.633,0.633-1.179,1.122-1.668c0.518-0.489,1.064-0.834,1.669-1.064c0.604-0.259,1.237-0.374,1.956-0.374
		c0.575,0,1.093,0.086,1.64,0.259c0.518,0.173,1.036,0.432,1.554,0.806V415.438L274.639,415.438z M280.767,421.996
		c0.518,0,1.035-0.115,1.496-0.316c0.489-0.201,0.921-0.488,1.324-0.863c0.374-0.373,0.662-0.805,0.863-1.294
		c0.202-0.489,0.288-1.007,0.288-1.525c0-0.546-0.086-1.064-0.288-1.553c-0.201-0.489-0.489-0.921-0.863-1.295
		c-0.403-0.402-0.806-0.69-1.295-0.863c-0.489-0.229-1.007-0.316-1.524-0.316c-0.547,0-1.064,0.087-1.554,0.316
		c-0.46,0.173-0.892,0.461-1.266,0.863c-0.375,0.374-0.662,0.806-0.863,1.295c-0.201,0.488-0.316,1.007-0.316,1.553
		c0,0.519,0.115,1.036,0.316,1.525c0.201,0.46,0.489,0.892,0.863,1.294c0.374,0.375,0.834,0.662,1.294,0.863
		C279.73,421.881,280.22,421.996,280.767,421.996L280.767,421.996z M285.945,417.997c0,0.69-0.115,1.324-0.375,1.957
		c-0.259,0.604-0.632,1.15-1.122,1.64c-0.489,0.46-1.064,0.834-1.698,1.093c-0.632,0.26-1.323,0.403-1.984,0.403
		c-0.69,0-1.353-0.144-1.985-0.403c-0.633-0.259-1.208-0.633-1.697-1.093c-0.489-0.489-0.863-1.036-1.122-1.64
		c-0.259-0.633-0.374-1.267-0.374-1.957c0-0.689,0.115-1.352,0.374-1.984c0.259-0.604,0.633-1.151,1.122-1.64
		c0.489-0.461,1.064-0.835,1.697-1.094s1.295-0.374,1.985-0.374c0.69,0,1.352,0.115,1.984,0.374
		c0.633,0.259,1.208,0.633,1.698,1.094c0.489,0.488,0.863,1.035,1.122,1.64C285.83,416.646,285.945,417.278,285.945,417.997
		L285.945,417.997z M287.239,422.831v-10.098l7.106,7.767v-7.394h1.093v10.099l-7.106-7.682v7.308H287.239L287.239,422.831z
		 M301.911,421.996c0.547,0,1.036-0.115,1.525-0.316s0.92-0.488,1.294-0.863c0.374-0.373,0.662-0.805,0.863-1.294
		c0.202-0.489,0.316-1.007,0.316-1.525c0-0.546-0.115-1.064-0.316-1.553c-0.201-0.489-0.489-0.921-0.863-1.295
		c-0.374-0.402-0.805-0.69-1.294-0.863c-0.46-0.229-0.978-0.316-1.525-0.316c-0.518,0-1.036,0.087-1.524,0.316
		c-0.489,0.173-0.921,0.461-1.266,0.863c-0.403,0.374-0.69,0.806-0.892,1.295c-0.202,0.488-0.288,1.007-0.288,1.553
		c0,0.519,0.086,1.036,0.288,1.525c0.201,0.46,0.489,0.892,0.892,1.294c0.374,0.375,0.806,0.662,1.295,0.863
		C300.875,421.881,301.394,421.996,301.911,421.996L301.911,421.996z M307.118,417.997c0,0.69-0.144,1.324-0.402,1.957
		c-0.259,0.604-0.633,1.15-1.122,1.64c-0.489,0.46-1.036,0.834-1.697,1.093c-0.633,0.26-1.295,0.403-1.985,0.403
		c-0.662,0-1.352-0.144-1.956-0.403c-0.662-0.259-1.208-0.633-1.697-1.093c-0.518-0.489-0.892-1.036-1.122-1.64
		c-0.288-0.633-0.403-1.267-0.403-1.957c0-0.689,0.115-1.352,0.403-1.984c0.23-0.604,0.604-1.151,1.122-1.64
		c0.489-0.461,1.036-0.835,1.697-1.094c0.604-0.259,1.294-0.374,1.956-0.374c0.69,0,1.353,0.115,2.014,0.374
		c0.633,0.259,1.179,0.633,1.668,1.094c0.489,0.488,0.863,1.035,1.122,1.64C306.975,416.646,307.118,417.278,307.118,417.997
		L307.118,417.997z M299.955,412.157l1.323-2.301h1.295l1.294,2.301h-0.806l-1.151-1.524l-1.15,1.524H299.955L299.955,412.157z
		 M312.93,423.205l-3.021-6.991l-1.208,6.617h-1.122l1.956-10.098l3.395,8.025l3.395-8.025l1.956,10.098h-1.121l-1.237-6.617
		L312.93,423.205L312.93,423.205z M319.201,422.831v-9.725h1.15v9.725H319.201L319.201,422.831z M329.989,415.438
		c-0.46-0.489-0.949-0.863-1.467-1.122c-0.547-0.23-1.122-0.346-1.755-0.346c-0.518,0-1.007,0.087-1.496,0.316
		c-0.489,0.202-0.921,0.489-1.266,0.863c-0.374,0.374-0.662,0.806-0.835,1.266c-0.201,0.489-0.287,1.007-0.287,1.582
		c0,0.461,0.058,0.863,0.173,1.237c0.114,0.403,0.259,0.748,0.489,1.064c0.402,0.547,0.862,0.979,1.438,1.266
		c0.576,0.288,1.18,0.461,1.842,0.461c0.604,0,1.18-0.145,1.726-0.403c0.519-0.229,1.007-0.633,1.438-1.122v1.525
		c-0.489,0.345-1.007,0.604-1.553,0.776c-0.547,0.173-1.122,0.288-1.727,0.288c-0.489,0-1.007-0.086-1.496-0.23
		c-0.46-0.173-0.921-0.374-1.353-0.661c-0.719-0.519-1.236-1.094-1.61-1.813c-0.374-0.72-0.575-1.525-0.575-2.359
		c0-0.748,0.115-1.438,0.373-2.043c0.26-0.633,0.634-1.179,1.151-1.668c0.489-0.489,1.035-0.834,1.64-1.064
		c0.604-0.259,1.266-0.374,1.985-0.374c0.547,0,1.093,0.086,1.611,0.259c0.518,0.173,1.035,0.432,1.553,0.806V415.438
		L329.989,415.438z M334.448,415.293l-1.553,3.567h3.106L334.448,415.293L334.448,415.293z M334.448,412.733l4.402,10.098h-1.237
		l-1.266-2.992h-3.798l-1.237,2.992h-1.266L334.448,412.733L334.448,412.733z"/>
	<path fill-rule="evenodd" clip-rule="evenodd" fill="#47668A" d="M343.626,422.831v-9.725h5.121v1.064h-3.971v2.791h3.971v1.064
		h-3.971v4.805H343.626L343.626,422.831z M350.214,422.831v-9.725h5.121v1.064h-3.971v2.791h3.971v1.064h-3.971v3.711h3.971v1.094
		H350.214L350.214,422.831z M358.154,421.737h0.719c1.208,0,2.043-0.058,2.475-0.173c0.46-0.086,0.863-0.259,1.15-0.518
		c0.402-0.345,0.72-0.748,0.921-1.295c0.201-0.518,0.316-1.121,0.316-1.783c0-0.69-0.115-1.295-0.316-1.783
		c-0.201-0.519-0.519-0.95-0.921-1.295c-0.287-0.259-0.69-0.432-1.15-0.547c-0.489-0.115-1.295-0.144-2.475-0.144h-0.719V421.737
		L358.154,421.737z M356.975,422.831v-9.725h1.87c1.381,0,2.359,0.087,2.905,0.23c0.576,0.145,1.064,0.374,1.496,0.69
		c0.547,0.432,0.979,0.979,1.266,1.64c0.288,0.662,0.403,1.438,0.403,2.302s-0.115,1.64-0.403,2.302
		c-0.287,0.661-0.719,1.208-1.266,1.64c-0.432,0.316-0.92,0.547-1.467,0.69s-1.381,0.23-2.503,0.23h-0.432H356.975L356.975,422.831z
		 M366.525,422.831v-9.725h5.121v1.064h-3.97v2.791h3.97v1.064h-3.97v3.711h3.97v1.094H366.525L366.525,422.831z M373.286,422.831
		v-9.725h2.302c0.633,0,1.122,0.058,1.409,0.115c0.317,0.087,0.576,0.202,0.806,0.374c0.288,0.23,0.519,0.547,0.662,0.921
		c0.173,0.374,0.23,0.776,0.23,1.237c0,0.806-0.201,1.409-0.662,1.813c-0.432,0.431-1.093,0.633-1.956,0.633h-0.201l3.711,4.632
		h-1.468l-3.538-4.632h-0.173v4.632H373.286L373.286,422.831z M374.408,414.085v3.251h0.892c0.893,0,1.496-0.115,1.813-0.346
		c0.317-0.229,0.461-0.633,0.461-1.208c0-0.633-0.173-1.064-0.461-1.323c-0.316-0.23-0.92-0.374-1.813-0.374H374.408
		L374.408,414.085z M383.327,415.293l-1.554,3.567h3.107L383.327,415.293L383.327,415.293z M383.327,412.733l4.401,10.098h-1.237
		l-1.266-2.992h-3.798l-1.266,2.992h-1.237L383.327,412.733L383.327,412.733z M388.447,422.831v-9.725h1.151v8.603h3.653v1.122
		H388.447L388.447,422.831z"/>
	<polygon fill-rule="evenodd" clip-rule="evenodd" fill="#47668A" points="348.286,407.41 331.975,407.41 322.596,389.545 
		338.908,389.545 348.286,407.41 	"/>
	<polygon fill-rule="evenodd" clip-rule="evenodd" fill="#E49241" points="357.09,369.925 340.777,369.925 323.948,387.791 
		340.26,387.791 357.09,369.925 	"/>
	<polygon fill-rule="evenodd" clip-rule="evenodd" fill="#47668A" points="314.454,369.925 330.767,369.925 340.145,387.791 
		323.833,387.791 314.454,369.925 	"/>
	<polygon fill-rule="evenodd" clip-rule="evenodd" fill="#E49241" points="305.623,407.41 321.963,407.41 338.793,389.545 
		322.481,389.545 305.623,407.41 	"/>
</g>
</svg>
