<?xml version="1.0" encoding="utf-8"?>
<!-- Generator: Adobe Illustrator 14.0.0, SVG Export Plug-In . SVG Version: 6.00 Build 43363)  -->
<!DOCTYPE svg PUBLIC "-//W3C//DTD SVG 1.1//EN" "http://www.w3.org/Graphics/SVG/1.1/DTD/svg11.dtd">
<svg version="1.1" id="Layer_1" xmlns="http://www.w3.org/2000/svg" xmlns:xlink="http://www.w3.org/1999/xlink" x="0px" y="0px"
	 width="612px" height="792px" viewBox="0 0 612 792" enable-background="new 0 0 612 792" xml:space="preserve">
<g>
	<polygon fill-rule="evenodd" clip-rule="evenodd" fill="#FFFFFF" points="209,300 401.756,300 401.756,492.756 209,492.756 
		209,300 	"/>
	<path fill-rule="evenodd" clip-rule="evenodd" fill="#0070AF" d="M273.466,390.115l-4.257,10.61h5.89l-1.615-10.655
		L273.466,390.115L273.466,390.115z M250.91,414.469l17.467-35.958h13.203l7.365,35.958H277.35l-0.852-4.791H265.25l-2.588,4.791
		H250.91L250.91,414.469z M294.432,414.469l5.06-35.958h11.682l-5.06,35.958H294.432L294.432,414.469z M372.123,390.07
		l-4.275,10.655h5.89L372.123,390.07L372.123,390.07z M349.548,414.469l17.468-35.958h13.202l7.365,35.958h-11.595l-0.852-4.791
		h-11.248l-2.588,4.791H349.548L349.548,414.469z"/>
	<polygon fill-rule="evenodd" clip-rule="evenodd" fill="#0070AF" points="323.725,397.656 338.362,397.656 348.39,414.268 
		333.753,414.268 323.725,397.656 	"/>
	<polygon fill-rule="evenodd" clip-rule="evenodd" fill="#F5822B" points="325.246,395.104 340.375,395.104 353.515,378.563 
		338.386,378.563 325.246,395.104 	"/>
	<polygon fill-rule="evenodd" clip-rule="evenodd" fill="#F5822B" points="310.117,414.369 325.246,414.369 338.386,397.625 
		323.257,397.625 310.117,414.369 	"/>
	<polygon fill-rule="evenodd" clip-rule="evenodd" fill="#0070AF" points="315.573,378.362 329.693,378.362 339.366,395.104 
		325.246,395.104 315.573,378.362 	"/>
	<path fill-rule="evenodd" clip-rule="evenodd" fill="#0070AF" d="M251.257,379.799l-1.124,10.575
		c-4.306-5.939-14.284-1.841-15.068,5.558c-0.996,9.392,8.608,11.581,13.835,6.05l-1.126,10.6c-1.56,0.768-3.085,1.361-4.59,1.766
		c-1.497,0.402-2.998,0.615-4.487,0.646c-1.872,0.039-3.568-0.156-5.096-0.586c-1.529-0.422-2.911-1.094-4.134-2.002
		c-2.36-1.725-4.066-3.918-5.118-6.588c-1.05-2.678-1.397-5.699-1.038-9.076c0.288-2.714,0.973-5.188,2.062-7.433
		c1.08-2.243,2.576-4.281,4.481-6.129c1.801-1.763,3.762-3.092,5.885-3.996c2.113-0.895,4.421-1.373,6.915-1.425
		c1.489-0.032,2.951,0.12,4.369,0.461C248.448,378.563,249.854,379.094,251.257,379.799L251.257,379.799z"/>
</g>
</svg>
