<?xml version="1.0" encoding="utf-8"?>
<!-- Generator: Adobe Illustrator 14.0.0, SVG Export Plug-In . SVG Version: 6.00 Build 43363)  -->
<!DOCTYPE svg PUBLIC "-//W3C//DTD SVG 1.1//EN" "http://www.w3.org/Graphics/SVG/1.1/DTD/svg11.dtd">
<svg version="1.1" id="Layer_1" xmlns="http://www.w3.org/2000/svg" xmlns:xlink="http://www.w3.org/1999/xlink" x="0px" y="0px"
	 width="612px" height="792px" viewBox="0 0 612 792" enable-background="new 0 0 612 792" xml:space="preserve">
<g>
	<polygon fill-rule="evenodd" clip-rule="evenodd" fill="#FFFFFF" points="209,300 401.756,300 401.756,492.756 209,492.756 
		209,300 	"/>
	<path fill="#31398D" d="M277.586,399.013v0.155c0,0.521,0.02,0.676,0.367,0.869c0.792,0.468,1.74,0.699,2.803,0.699
		c2.629,0,4.117-1.337,4.117-3.695c0-1.797-1.179-2.745-3.537-3.923c-1.373-0.696-2.281-1.083-2.281-2.378
		c0-1.063,0.812-1.797,2.087-1.797c0.947,0,1.662,0.406,2.107,1.218c0.271,0.483,0.135,1.159,0.541,1.159
		c0.135,0,0.232-0.154,0.232-0.405c0-1.256-0.097-1.972-0.154-2.068c-0.155-0.232-1.102-0.58-2.474-0.58
		c-2.107,0-3.557,1.314-3.557,3.093c0,1.682,1.083,2.783,3.247,3.866c1.662,0.831,2.513,1.528,2.513,2.745
		c0,1.295-0.909,2.068-2.417,2.068c-1.469,0-2.609-0.985-2.822-2.011c-0.135-0.695-0.097-1.102-0.406-1.102
		C277.606,396.925,277.586,397.582,277.586,399.013L277.586,399.013z M289.457,396.042v0.444c0,1.119,0.097,2.007,0.638,2.719
		c0.773,1.006,2.087,1.491,3.924,1.491c3.691,0,4.891-1.549,4.891-5.273v-0.093l-0.02-4.265c0-0.174-0.02-0.31-0.02-0.406
		c0-0.657,0.039-0.963,0.387-1.195c0.58-0.387,1.276-0.116,1.276-0.599c0-0.135-0.194-0.29-0.387-0.29l-3.17,0.039
		c-0.271,0-0.425,0.059-0.425,0.29c0,0.368,0.599,0.213,1.121,0.542c0.367,0.232,0.464,0.538,0.464,1.041v0.271l0.039,3.917v0.29
		c0,3.57-0.715,4.978-3.672,4.978c-2.3,0-3.286-1.079-3.286-3.511l-0.02-5.074c0-1.988,0.097-2.162,1.102-2.162
		c0.406,0,0.599-0.077,0.599-0.271c0-0.271-0.271-0.329-0.851-0.329h-0.309l-3.673,0.058c-0.232,0-0.348,0.136-0.348,0.368
		c0,0.193,0.097,0.251,0.329,0.251h0.194c1.218,0,1.295,0.174,1.295,1.292c0,0.039-0.019,0.135-0.019,0.348L289.457,396.042
		L289.457,396.042z M306.99,397.834l-0.019-1.798c0-0.348-0.039-1.024-0.039-2.049c0-1.643,0.077-2.899,0.077-3.789
		c0-0.348-0.02-0.58-0.02-0.677c0-0.387,0.426-0.561,1.354-0.561c1.469,0,2.803,0.464,3.866,1.314
		c1.604,1.276,2.223,2.513,2.223,4.678c0,1.411-0.483,2.494-1.585,3.518c-0.985,0.908-2.3,1.431-3.479,1.431
		C307.86,399.902,306.99,399.148,306.99,397.834L306.99,397.834z M305.232,398.298v0.425c0,0.58-0.02,0.793-0.31,0.928
		c-0.387,0.175-1.16,0.155-1.16,0.639c0,0.138,0.174,0.196,0.444,0.196c0.174,0,0.367-0.059,0.561-0.059h3.092
		c0.561,0,1.102,0.059,1.604,0.059c4.194,0,6.766-2.323,6.766-5.764c0-1.894-0.851-3.653-2.339-4.833
		c-1.45-1.16-3.17-1.45-5.489-1.45c-3.441,0-5.045,0.077-5.045,0.715c0,0.116,0.077,0.174,0.232,0.174
		c0.328,0,0.676-0.135,1.063-0.135c0.367,0,0.542,0.193,0.542,0.561c0,0.077-0.02,0.212-0.02,0.425L305.232,398.298L305.232,398.298
		z M321.2,396.732c-0.618,1.43-0.928,2.454-1.372,2.88c-0.503,0.502-1.354,0.271-1.354,0.677c0,0.138,0.097,0.196,0.29,0.196
		c0.772,0,1.721-0.078,2.86-0.078c0.638,0,1.006,0.078,1.121,0.078c0.155,0,0.232-0.097,0.232-0.273c0-0.232-0.348-0.31-0.909-0.426
		c-0.405-0.077-0.579-0.232-0.579-0.561c0-0.058,0.251-1.392,1.159-3.518c0.155-0.367,0.136-0.406,0.406-0.406
		c0.328,0,0.812-0.058,1.469-0.058c0.464,0,0.831,0.058,1.102,0.058h0.252c0.29,0,0.31,0.174,0.425,0.599l0.793,2.707
		c0.097,0.347,0.193,0.561,0.193,0.695c0,0.328-0.155,0.425-0.619,0.522c-0.561,0.115-0.869,0.077-0.869,0.366
		c0,0.197,0.193,0.294,0.521,0.294c0.464,0,0.947-0.059,1.449-0.059c1.083,0,1.973,0.059,2.61,0.059
		c0.251,0,0.367-0.078,0.367-0.273c0-0.387-0.793-0.136-1.276-0.658c-0.271-0.29-0.695-1.256-1.256-2.88l-2.822-8.099
		c-0.097-0.271-0.213-0.425-0.348-0.425c-0.193,0-0.271,0.155-0.367,0.406l-0.503,1.314c-0.136,0.329-0.348,0.85-0.638,1.507
		L321.2,396.732L321.2,396.732z M323.288,393.794l0.695-1.817c0.29-0.734,0.387-1.083,0.521-1.083c0.136,0,0.213,0.406,0.503,1.199
		c0.503,1.392,0.696,2.146,0.696,2.243c0,0.173-0.039,0.193-0.232,0.193h-0.29c-0.231,0-0.464,0.039-0.657,0.039
		c-0.29,0-0.561-0.039-0.772-0.039c-0.193,0-0.31,0.02-0.387,0.02c-0.175,0-0.271-0.077-0.271-0.232
		C323.094,394.219,323.19,394.064,323.288,393.794L323.288,393.794z M344.571,398.549c0,0.251,0.02,0.426,0.02,0.541
		c0,0.387-0.097,0.6-0.445,0.696c-0.599,0.174-1.179-0.02-1.179,0.387c0,0.135,0.174,0.313,0.522,0.313
		c0.502,0,1.102-0.097,1.798-0.097c0.715,0,1.353,0.097,1.913,0.097h0.31c0.677,0,0.715-0.078,0.715-0.332
		c0-0.29-0.232-0.213-0.967-0.387c-0.502-0.116-0.772-0.213-0.85-0.444c-0.078-0.193-0.232-2.977-0.232-8.196
		c0-1.488,0.115-1.875,1.585-1.875h0.348c0.193,0,0.271-0.097,0.271-0.309c0-0.155-0.251-0.213-0.754-0.213h-1.063
		c-0.638,0-1.005-0.02-1.103-0.02c-0.521,0-0.676,0.193-0.908,0.735l-3.111,7.171c-0.155,0.348-0.252,0.521-0.329,0.521
		c-0.174,0-0.618-0.889-1.411-2.687l-2.223-5.025c-0.213-0.502-0.154-0.734-0.793-0.734c-0.212,0-0.444,0.019-0.676,0.019
		c-0.773,0-1.45-0.154-1.991-0.154c-0.31,0-0.483,0.096-0.483,0.251c0,0.271,0.638,0.271,1.721,0.619
		c0.271,0.078,0.348,0.271,0.348,0.638c0,0.155-0.077,2.474-0.444,6.978c-0.097,1.257-0.116,2.049-0.31,2.339
		c-0.231,0.329-0.696,0.348-1.372,0.483c-0.252,0.058-0.387,0.097-0.387,0.29c0,0.213,0.135,0.332,0.425,0.332
		c1.006,0,1.837-0.078,2.417-0.078c0.618,0,1.179,0.078,1.662,0.078c0.367,0,0.599-0.119,0.599-0.273
		c0-0.445-1.005-0.232-1.585-0.522c-0.483-0.232-0.521-0.58-0.521-1.237l0.097-6.881v-0.174c0-0.193,0.019-0.271,0.115-0.271
		c0.098,0,0.116,0.097,0.193,0.271l3.441,7.886c0.212,0.483,0.348,0.754,0.561,0.754c0.328,0,0.851-1.546,2.203-4.697
		c1.063-2.474,1.47-3.692,1.701-3.692c0.135,0,0.154,0.116,0.154,0.406c0,0.097-0.02,0.232-0.02,0.329
		c0,0.116,0.039,0.232,0.039,0.329V398.549L344.571,398.549z M352.866,398.316c0,0.832,0,1.237-0.271,1.373
		c-0.793,0.406-1.527,0.097-1.527,0.561c0,0.157,0.116,0.235,0.367,0.235c0.387,0,0.754-0.059,1.102-0.059h0.754l5.258,0.02
		c0.251,0,0.444,0.039,0.638,0.039h0.252c0.309,0,0.405-0.158,0.463-0.409c0.329-1.276,0.406-2.223,0.406-2.262
		c0-0.154-0.097-0.271-0.231-0.271c-0.232,0-0.29,0.657-0.928,1.41c-0.483,0.581-1.296,0.832-2.532,0.832
		c-1.083,0-1.759-0.232-1.837-0.483c0-0.097-0.097-2.59-0.231-2.59l-0.058-1.334v-0.29c0-0.445,0.231-0.541,0.966-0.541
		c1.604,0,2.396,0.077,2.609,0.406c0.444,0.676,0.116,1.508,0.58,1.508c0.193,0,0.193-0.116,0.193-0.425
		c0-0.135-0.058-0.638-0.058-1.469c0-0.521,0.019-1.179,0.097-1.991c-0.02-0.155-0.078-0.193-0.232-0.193
		c-0.425,0-0.464,1.102-0.715,1.392c-0.155,0.174-0.677,0.193-1.604,0.193h-0.444c-0.387,0-0.677,0.02-0.909,0.02
		c-0.348,0-0.405-0.251-0.405-0.87l-0.059-2.494v-0.232c0-0.773,0.097-1.082,0.87-1.082c1.952,0,3.054,0.116,3.402,0.58
		c0.328,0.425,0.405,1.237,0.715,1.237c0.115,0,0.154-0.058,0.154-0.174c0-0.116-0.039-0.251-0.039-0.386
		c0-0.174,0.039-0.677,0.039-1.508c0-0.348-0.154-0.386-0.734-0.386h-0.734c-0.967,0-1.991,0.077-3.016,0.077
		c-1.334,0-2.455-0.174-3.421-0.174c-0.406,0-0.619,0.039-0.619,0.251c0,0.329,0.677,0.193,1.373,0.502
		c0.251,0.116,0.328,0.251,0.328,0.561c0,0.251-0.019,0.387-0.019,0.425L352.866,398.316L352.866,398.316z M365.471,398.723v0.29
		c0,0.464-0.135,0.638-0.695,0.773c-0.657,0.154-1.141,0.097-1.141,0.426c0,0.195,0.116,0.273,0.328,0.273
		c0.116,0,0.387-0.02,0.773-0.02l3.479-0.02c0.212,0,0.387,0.039,0.521,0.039c0.329,0,0.464-0.059,0.464-0.273
		c0-0.291-0.328-0.31-0.851-0.426c-0.734-0.174-1.159-0.251-1.159-0.638c0-0.367-0.059-0.6-0.059-0.696l0.02-3.769h0.174
		c0.967,0,1.411,0.174,1.837,0.928l2.416,4.407c0.193,0.349,0.387,0.468,0.812,0.468c0.271,0,0.541-0.078,0.831-0.078
		c1.102,0,1.721,0.078,1.817,0.078c0.174,0,0.309-0.178,0.309-0.313c0-0.367-0.676-0.232-1.526-0.619
		c-0.541-0.251-0.812-0.561-1.121-1.082l-2.204-3.673c-0.096-0.155-0.135-0.251-0.135-0.328c0-0.251,0.638-0.425,1.179-0.986
		c0.522-0.541,0.793-1.179,0.793-1.894c0-1.817-1.275-2.996-3.421-2.996c-0.928,0-1.799,0.135-2.61,0.135
		c-0.695,0-1.314-0.097-1.855-0.097c-0.483,0-0.734,0.116-0.734,0.31c0,0.348,0.561,0.154,1.354,0.386
		c0.425,0.116,0.464,0.251,0.464,0.792v2.474L365.471,398.723L365.471,398.723z M367.191,394.084l-0.039-3.208v-0.484
		c0-0.947,0.077-1.198,0.754-1.198c1.914,0,2.842,0.851,2.842,2.59c0,1.411-0.87,2.319-2.301,2.319
		C368.157,394.103,367.732,394.084,367.191,394.084L367.191,394.084z M378.732,398.239v0.503c0,0.715-0.019,0.908-0.482,1.044
		c-0.812,0.213-1.392,0.116-1.392,0.464c0,0.196,0.135,0.235,0.348,0.235h0.232c1.449,0,2.223-0.097,2.377-0.097
		c0.967,0,1.624,0.097,1.952,0.097c0.213,0,0.31-0.059,0.31-0.217c0-0.366-0.677-0.212-1.141-0.405
		c-0.541-0.213-0.561-0.657-0.561-1.547v-0.192c0-0.87,0.02-1.546,0.02-2.069v-1.256l-0.059-3.344v-0.444
		c0-0.986,0.059-1.547,0.193-1.682c0.213-0.212,0.755-0.097,1.276-0.29c0.116-0.039,0.213-0.154,0.213-0.271
		c0-0.135-0.175-0.155-0.6-0.155h-0.31c-1.082,0-2.049,0.097-2.899,0.097c-0.31,0-0.483-0.038-0.58-0.038
		c-0.192,0-0.29,0.077-0.29,0.212c0,0.329,0.503,0.29,1.083,0.444c0.348,0.078,0.348,0.657,0.348,1.875v0.251L378.732,398.239
		L378.732,398.239z M385.229,399.013v0.155c0,0.521,0.02,0.676,0.367,0.869c0.793,0.468,1.74,0.699,2.804,0.699
		c2.628,0,4.117-1.337,4.117-3.695c0-1.797-1.18-2.745-3.538-3.923c-1.372-0.696-2.28-1.083-2.28-2.378
		c0-1.063,0.812-1.797,2.087-1.797c0.947,0,1.663,0.406,2.107,1.218c0.271,0.483,0.135,1.159,0.541,1.159
		c0.136,0,0.232-0.154,0.232-0.405c0-1.256-0.097-1.972-0.155-2.068c-0.154-0.232-1.102-0.58-2.474-0.58
		c-2.107,0-3.557,1.314-3.557,3.093c0,1.682,1.082,2.783,3.247,3.866c1.662,0.831,2.513,1.528,2.513,2.745
		c0,1.295-0.908,2.068-2.416,2.068c-1.469,0-2.609-0.985-2.822-2.011c-0.135-0.695-0.097-1.102-0.406-1.102
		C385.249,396.925,385.229,397.582,385.229,399.013L385.229,399.013z"/>
	<path fill-rule="evenodd" clip-rule="evenodd" fill="#31398D" d="M263.66,377.259c-10.557-10.558-27.681-10.558-38.238,0
		c-10.557,10.557-10.557,27.68,0,38.238c10.558,10.557,27.681,10.557,38.238,0C274.217,404.939,274.217,387.816,263.66,377.259
		L263.66,377.259z"/>
	<path fill-rule="evenodd" clip-rule="evenodd" fill="#2F3A8E" d="M263.536,377.484c-10.402-10.461-27.22-10.468-37.694-0.1
		s-10.508,27.27-0.052,37.64s27.326,10.43,37.706,0.101C273.875,404.795,273.938,387.945,263.536,377.484L263.536,377.484z"/>
	<path fill-rule="evenodd" clip-rule="evenodd" fill="#313C8E" d="M263.411,377.709c-10.247-10.366-26.759-10.379-37.15-0.2
		c-10.391,10.178-10.459,26.858-0.104,37.042s26.971,10.302,37.174,0.201C273.534,404.652,273.659,388.074,263.411,377.709
		L263.411,377.709z"/>
	<path fill-rule="evenodd" clip-rule="evenodd" fill="#333D8F" d="M263.287,377.934c-10.092-10.27-26.299-10.29-36.606-0.301
		c-10.308,9.99-10.41,26.449-0.157,36.445c10.253,9.997,26.616,10.174,36.642,0.302
		C273.192,404.508,273.379,388.204,263.287,377.934L263.287,377.934z"/>
	<path fill-rule="evenodd" clip-rule="evenodd" fill="#323F90" d="M263.162,378.159c-9.936-10.174-25.838-10.201-36.063-0.401
		c-10.225,9.8-10.36,26.038-0.209,35.848c10.152,9.81,26.261,10.045,36.11,0.402C272.85,404.364,273.099,388.333,263.162,378.159
		L263.162,378.159z"/>
	<path fill-rule="evenodd" clip-rule="evenodd" fill="#344091" d="M263.038,378.384c-9.781-10.079-25.377-10.112-35.519-0.501
		c-10.141,9.61-10.311,25.627-0.261,35.25c10.05,9.623,25.906,9.917,35.578,0.503C272.508,404.221,272.819,388.462,263.038,378.384
		L263.038,378.384z"/>
	<path fill-rule="evenodd" clip-rule="evenodd" fill="#334292" d="M262.914,378.609c-9.626-9.982-24.917-10.023-34.975-0.601
		c-10.059,9.421-10.262,25.216-0.313,34.652c9.948,9.436,25.551,9.789,35.045,0.604C272.166,404.077,272.54,388.591,262.914,378.609
		L262.914,378.609z"/>
	<path fill-rule="evenodd" clip-rule="evenodd" fill="#364292" d="M262.789,378.834c-9.471-9.887-24.457-9.934-34.432-0.701
		c-9.975,9.232-10.212,24.807-0.365,34.055c9.847,9.249,25.196,9.661,34.514,0.703C271.824,403.934,272.26,388.72,262.789,378.834
		L262.789,378.834z"/>
	<path fill-rule="evenodd" clip-rule="evenodd" fill="#374493" d="M262.665,379.059c-9.316-9.791-23.996-9.844-33.888-0.801
		c-9.892,9.043-10.164,24.396-0.417,33.457c9.745,9.062,24.841,9.533,33.981,0.804C271.482,403.79,271.98,388.85,262.665,379.059
		L262.665,379.059z"/>
	<path fill-rule="evenodd" clip-rule="evenodd" fill="#374493" d="M262.54,379.284c-9.161-9.695-23.535-9.755-33.344-0.901
		c-9.809,8.854-10.114,23.985-0.47,32.859c9.644,8.875,24.486,9.405,33.45,0.905C271.14,403.646,271.701,388.979,262.54,379.284
		L262.54,379.284z"/>
	<path fill-rule="evenodd" clip-rule="evenodd" fill="#384795" d="M262.415,379.509c-9.005-9.599-23.075-9.666-32.8-1.001
		c-9.725,8.664-10.064,23.574-0.522,32.262c9.543,8.688,24.131,9.277,32.917,1.005C270.798,403.503,271.421,389.108,262.415,379.509
		L262.415,379.509z"/>
	<path fill-rule="evenodd" clip-rule="evenodd" fill="#3B4795" d="M262.291,379.734c-8.851-9.503-22.614-9.577-32.256-1.102
		c-9.642,8.476-10.016,23.165-0.574,31.665c9.441,8.501,23.776,9.149,32.386,1.106C270.456,403.359,271.142,389.237,262.291,379.734
		L262.291,379.734z"/>
	<path fill-rule="evenodd" clip-rule="evenodd" fill="#3A4996" d="M262.166,379.959c-8.695-9.408-22.154-9.488-31.712-1.202
		s-9.966,22.754-0.626,31.067c9.34,8.314,23.421,9.021,31.854,1.206C270.113,403.215,270.862,389.366,262.166,379.959
		L262.166,379.959z"/>
	<path fill-rule="evenodd" clip-rule="evenodd" fill="#3C4A97" d="M262.042,380.184c-8.541-9.311-21.693-9.398-31.169-1.301
		c-9.475,8.097-9.917,22.343-0.678,30.469c9.238,8.127,23.066,8.894,31.322,1.307C269.772,403.072,270.583,389.495,262.042,380.184
		L262.042,380.184z"/>
	<path fill-rule="evenodd" clip-rule="evenodd" fill="#3E4C97" d="M261.917,380.409c-8.385-9.216-21.233-9.31-30.625-1.402
		c-9.392,7.907-9.868,21.932-0.731,29.872c9.137,7.94,22.711,8.766,30.79,1.407C269.43,402.929,270.303,389.625,261.917,380.409
		L261.917,380.409z"/>
	<path fill-rule="evenodd" clip-rule="evenodd" fill="#3D4D98" d="M261.793,380.634c-8.23-9.12-20.772-9.22-30.082-1.502
		s-9.818,21.522-0.783,29.274c9.036,7.754,22.356,8.638,30.257,1.508C269.088,402.785,270.023,389.753,261.793,380.634
		L261.793,380.634z"/>
	<path fill-rule="evenodd" clip-rule="evenodd" fill="#3F4F99" d="M261.668,380.859c-8.075-9.023-20.312-9.131-29.537-1.602
		c-9.226,7.529-9.77,21.111-0.835,28.677c8.934,7.566,22.001,8.51,29.726,1.608C268.746,402.642,269.743,389.883,261.668,380.859
		L261.668,380.859z"/>
	<path fill-rule="evenodd" clip-rule="evenodd" fill="#41509A" d="M261.543,381.084c-7.919-8.928-19.851-9.042-28.993-1.703
		s-9.72,20.701-0.888,28.08c8.833,7.379,21.646,8.381,29.193,1.709C268.404,402.497,269.464,390.012,261.543,381.084
		L261.543,381.084z"/>
	<path fill-rule="evenodd" clip-rule="evenodd" fill="#40529A" d="M261.419,381.309c-7.765-8.832-19.391-8.953-28.45-1.802
		c-9.06,7.15-9.671,20.29-0.939,27.482c8.731,7.191,21.291,8.253,28.662,1.809C268.062,402.354,269.184,390.142,261.419,381.309
		L261.419,381.309z"/>
	<path fill-rule="evenodd" clip-rule="evenodd" fill="#42539C" d="M261.295,381.534c-7.609-8.736-18.93-8.864-27.906-1.903
		s-9.621,19.879-0.992,26.884c8.63,7.006,20.937,8.125,28.129,1.91C267.72,402.211,268.905,390.271,261.295,381.534L261.295,381.534
		z"/>
	<path fill-rule="evenodd" clip-rule="evenodd" fill="#44559D" d="M261.17,381.759c-7.455-8.641-18.469-8.775-27.362-2.003
		s-9.572,19.47-1.044,26.287c8.528,6.818,20.582,7.997,27.598,2.011C267.378,402.066,268.625,390.399,261.17,381.759L261.17,381.759
		z"/>
	<path fill-rule="evenodd" clip-rule="evenodd" fill="#43569E" d="M261.046,381.984c-7.299-8.545-18.009-8.686-26.819-2.104
		c-8.81,6.583-9.522,19.059-1.096,25.689c8.426,6.632,20.226,7.869,27.065,2.111C267.036,401.923,268.345,390.529,261.046,381.984
		L261.046,381.984z"/>
	<path fill-rule="evenodd" clip-rule="evenodd" fill="#46569E" d="M260.921,382.209c-7.144-8.449-17.548-8.596-26.275-2.203
		c-8.727,6.394-9.474,18.648-1.148,25.093c8.325,6.444,19.871,7.74,26.533,2.211C266.694,401.779,268.065,390.658,260.921,382.209
		L260.921,382.209z"/>
	<path fill-rule="evenodd" clip-rule="evenodd" fill="#44599F" d="M260.796,382.434c-6.989-8.353-17.087-8.508-25.731-2.304
		c-8.643,6.205-9.424,18.238-1.201,24.495c8.224,6.258,19.517,7.613,26.002,2.312C266.352,401.636,267.786,390.787,260.796,382.434
		L260.796,382.434z"/>
	<path fill-rule="evenodd" clip-rule="evenodd" fill="#47599F" d="M260.672,382.659c-6.833-8.257-16.627-8.418-25.187-2.403
		c-8.56,6.015-9.375,17.827-1.252,23.897c8.122,6.07,19.161,7.484,25.469,2.412C266.01,401.492,267.506,390.917,260.672,382.659
		L260.672,382.659z"/>
	<path fill-rule="evenodd" clip-rule="evenodd" fill="#495CA1" d="M260.547,382.884c-6.678-8.161-16.166-8.329-24.643-2.503
		s-9.326,17.417-1.305,23.299c8.021,5.884,18.806,7.357,24.938,2.514C265.668,401.349,267.227,391.045,260.547,382.884
		L260.547,382.884z"/>
	<path fill-rule="evenodd" clip-rule="evenodd" fill="#495CA1" d="M260.423,383.109c-6.523-8.066-15.706-8.241-24.1-2.604
		c-8.393,5.636-9.276,17.006-1.357,22.703s18.452,7.229,24.405,2.613C265.326,401.205,266.947,391.175,260.423,383.109
		L260.423,383.109z"/>
	<path fill-rule="evenodd" clip-rule="evenodd" fill="#4B5DA2" d="M260.299,383.334c-6.369-7.97-15.246-8.151-23.556-2.704
		c-8.311,5.447-9.228,16.595-1.409,22.105c7.817,5.509,18.096,7.101,23.873,2.714C264.984,401.062,266.667,391.304,260.299,383.334
		L260.299,383.334z"/>
	<path fill-rule="evenodd" clip-rule="evenodd" fill="#4D5FA3" d="M260.174,383.559c-6.213-7.874-14.785-8.062-23.012-2.804
		c-8.227,5.258-9.178,16.185-1.461,21.508c7.716,5.322,17.741,6.973,23.341,2.813C264.642,400.918,266.388,391.433,260.174,383.559
		L260.174,383.559z"/>
	<path fill-rule="evenodd" clip-rule="evenodd" fill="#4C60A5" d="M260.05,383.785c-6.058-7.778-14.324-7.973-22.468-2.904
		c-8.144,5.068-9.129,15.774-1.514,20.91s17.386,6.845,22.809,2.915C264.3,400.774,266.108,391.563,260.05,383.785L260.05,383.785z"
		/>
	<path fill-rule="evenodd" clip-rule="evenodd" fill="#4E62A6" d="M259.925,384.009c-5.902-7.682-13.863-7.884-21.924-3.004
		c-8.061,4.879-9.08,15.364-1.566,20.313c7.514,4.948,17.032,6.717,22.277,3.015C263.958,400.631,265.828,391.691,259.925,384.009
		L259.925,384.009z"/>
	<path fill-rule="evenodd" clip-rule="evenodd" fill="#4F63A6" d="M259.801,384.234c-5.748-7.586-13.403-7.794-21.381-3.104
		c-7.978,4.69-9.03,14.953-1.618,19.715c7.413,4.762,16.677,6.589,21.745,3.115C263.616,400.487,265.549,391.821,259.801,384.234
		L259.801,384.234z"/>
	<path fill-rule="evenodd" clip-rule="evenodd" fill="#4F65A7" d="M259.676,384.459c-5.593-7.491-12.942-7.705-20.837-3.205
		c-7.895,4.501-8.981,14.543-1.67,19.117c7.311,4.575,16.321,6.461,21.213,3.216C263.274,400.344,265.269,391.95,259.676,384.459
		L259.676,384.459z"/>
	<path fill-rule="evenodd" clip-rule="evenodd" fill="#5166A8" d="M259.551,384.685c-5.438-7.395-12.482-7.617-20.293-3.305
		s-8.932,14.132-1.723,18.52c7.209,4.388,15.967,6.333,20.682,3.316C262.932,400.2,264.989,392.079,259.551,384.685L259.551,384.685
		z"/>
	<path fill-rule="evenodd" clip-rule="evenodd" fill="#5368A9" d="M259.428,384.91c-5.283-7.299-12.021-7.527-19.75-3.405
		c-7.728,4.123-8.882,13.722-1.774,17.922c7.108,4.201,15.611,6.205,20.149,3.417C262.59,400.057,264.71,392.208,259.428,384.91
		L259.428,384.91z"/>
	<path fill-rule="evenodd" clip-rule="evenodd" fill="#5269AA" d="M259.303,385.135c-5.127-7.204-11.561-7.438-19.206-3.505
		s-8.833,13.311-1.827,17.325c7.006,4.014,15.256,6.076,19.617,3.518S264.43,392.337,259.303,385.135L259.303,385.135z"/>
	<path fill-rule="evenodd" clip-rule="evenodd" fill="#546AAB" d="M259.178,385.359c-4.972-7.107-11.101-7.349-18.662-3.605
		c-7.562,3.744-8.784,12.9-1.879,16.727c6.905,3.827,14.901,5.948,19.085,3.618C261.906,399.769,264.15,392.467,259.178,385.359
		L259.178,385.359z"/>
	<path fill-rule="evenodd" clip-rule="evenodd" fill="#566CAC" d="M259.053,385.585c-4.817-7.012-10.64-7.26-18.118-3.706
		s-8.735,12.49-1.932,16.129c6.804,3.641,14.546,5.821,18.553,3.719C261.564,399.626,263.871,392.596,259.053,385.585
		L259.053,385.585z"/>
	<path fill-rule="evenodd" clip-rule="evenodd" fill="#566DAC" d="M258.929,385.81c-4.662-6.916-10.179-7.171-17.574-3.806
		s-8.686,12.08-1.983,15.532c6.702,3.453,14.191,5.692,18.021,3.819C261.222,399.481,263.591,392.725,258.929,385.81L258.929,385.81
		z"/>
	<path fill-rule="evenodd" clip-rule="evenodd" fill="#586FAD" d="M258.805,386.035c-4.507-6.82-9.719-7.082-17.031-3.906
		c-7.312,3.176-8.636,11.669-2.036,14.935c6.601,3.267,13.836,5.564,17.489,3.92C260.88,399.338,263.312,392.854,258.805,386.035
		L258.805,386.035z"/>
	<path fill-rule="evenodd" clip-rule="evenodd" fill="#5770AE" d="M258.68,386.26c-4.352-6.724-9.258-6.993-16.487-4.006
		s-8.587,11.258-2.088,14.337c6.499,3.079,13.482,5.438,16.957,4.021C260.538,399.195,263.032,392.983,258.68,386.26L258.68,386.26z
		"/>
	<path fill-rule="evenodd" clip-rule="evenodd" fill="#5972AF" d="M258.556,386.484c-4.196-6.628-8.797-6.903-15.943-4.105
		c-7.145,2.797-8.538,10.848-2.14,13.74c6.397,2.892,13.126,5.308,16.425,4.121C260.196,399.051,262.752,393.113,258.556,386.484
		L258.556,386.484z"/>
	<path fill-rule="evenodd" clip-rule="evenodd" fill="#5C72AF" d="M258.431,386.709c-4.042-6.532-8.337-6.814-15.399-4.206
		c-7.062,2.608-8.488,10.437-2.192,13.143c6.296,2.706,12.771,5.18,15.893,4.221C259.854,398.907,262.473,393.242,258.431,386.709
		L258.431,386.709z"/>
	<path fill-rule="evenodd" clip-rule="evenodd" fill="#5B73B1" d="M258.306,386.934c-3.886-6.436-7.876-6.725-14.855-4.306
		c-6.979,2.419-8.439,10.027-2.245,12.545c6.195,2.518,12.417,5.052,15.361,4.321C259.512,398.764,262.193,393.371,258.306,386.934
		L258.306,386.934z"/>
	<path fill-rule="evenodd" clip-rule="evenodd" fill="#5D75B2" d="M258.182,387.16c-3.73-6.341-7.416-6.636-14.312-4.407
		c-6.896,2.229-8.39,9.617-2.296,11.948c6.093,2.331,12.062,4.924,14.829,4.421C259.17,398.62,261.913,393.5,258.182,387.16
		L258.182,387.16z"/>
	<path fill-rule="evenodd" clip-rule="evenodd" fill="#5F76B3" d="M258.058,387.385c-3.576-6.245-6.955-6.547-13.768-4.506
		s-8.34,9.206-2.349,11.35c5.992,2.145,11.707,4.796,14.296,4.522C258.829,398.477,261.634,393.629,258.058,387.385L258.058,387.385
		z"/>
	<path fill-rule="evenodd" clip-rule="evenodd" fill="#5E78B4" d="M257.933,387.609c-3.42-6.149-6.495-6.458-13.224-4.606
		c-6.729,1.851-8.291,8.795-2.401,10.752s11.352,4.668,13.765,4.623C258.486,398.333,261.354,393.759,257.933,387.609
		L257.933,387.609z"/>
	<path fill-rule="evenodd" clip-rule="evenodd" fill="#6079B5" d="M257.809,387.834c-3.266-6.053-6.034-6.369-12.681-4.707
		c-6.646,1.662-8.242,8.385-2.453,10.155c5.789,1.771,10.997,4.541,13.233,4.723C258.144,398.189,261.074,393.888,257.809,387.834
		L257.809,387.834z"/>
	<path fill-rule="evenodd" clip-rule="evenodd" fill="#627BB6" d="M257.684,388.06c-3.11-5.957-5.573-6.279-12.136-4.807
		c-6.563,1.473-8.193,7.974-2.505,9.558s10.642,4.413,12.701,4.824C257.802,398.046,260.794,394.017,257.684,388.06L257.684,388.06z
		"/>
	<path fill-rule="evenodd" clip-rule="evenodd" fill="#617CB7" d="M257.56,388.284c-2.955-5.861-5.113-6.19-11.593-4.907
		c-6.479,1.284-8.143,7.563-2.557,8.96s10.286,4.284,12.168,4.924S260.515,394.146,257.56,388.284L257.56,388.284z"/>
	<path fill-rule="evenodd" clip-rule="evenodd" fill="#637EB8" d="M257.435,388.51c-2.8-5.766-4.652-6.102-11.049-5.007
		s-8.094,7.153-2.61,8.362c5.485,1.21,9.932,4.157,11.637,5.025C257.118,397.759,260.235,394.275,257.435,388.51L257.435,388.51z"/>
	<path fill-rule="evenodd" clip-rule="evenodd" fill="#6580B9" d="M257.311,388.734c-2.645-5.67-4.192-6.012-10.505-5.107
		c-6.313,0.905-8.045,6.743-2.662,7.765c5.383,1.023,9.576,4.028,11.105,5.125C256.776,397.615,259.956,394.404,257.311,388.734
		L257.311,388.734z"/>
	<path fill-rule="evenodd" clip-rule="evenodd" fill="#6581BA" d="M257.186,388.959c-2.49-5.574-3.731-5.923-9.961-5.208
		c-6.23,0.716-7.996,6.332-2.714,7.167c5.282,0.836,9.222,3.9,10.572,5.226C256.435,397.472,259.676,394.534,257.186,388.959
		L257.186,388.959z"/>
	<path fill-rule="evenodd" clip-rule="evenodd" fill="#6783BB" d="M257.062,389.185c-2.335-5.479-3.271-5.834-9.417-5.308
		c-6.147,0.526-7.947,5.921-2.766,6.57c5.18,0.648,8.866,3.772,10.041,5.327C256.092,397.328,259.396,394.663,257.062,389.185
		L257.062,389.185z"/>
	<path fill-rule="evenodd" clip-rule="evenodd" fill="#6985BC" d="M256.937,389.41c-2.179-5.382-2.81-5.745-8.874-5.408
		s-7.897,5.51-2.819,5.972c5.079,0.462,8.512,3.645,9.509,5.428C255.75,397.184,259.117,394.792,256.937,389.41L256.937,389.41z"/>
	<path fill-rule="evenodd" clip-rule="evenodd" fill="#6886BD" d="M256.813,389.635c-2.024-5.287-2.35-5.656-8.33-5.508
		c-5.98,0.148-7.848,5.101-2.871,5.375c4.977,0.274,8.157,3.516,8.977,5.527C255.409,397.04,258.837,394.921,256.813,389.635
		L256.813,389.635z"/>
	<path fill-rule="evenodd" clip-rule="evenodd" fill="#6A88BE" d="M256.688,389.859c-1.869-5.19-1.889-5.566-7.786-5.608
		c-5.897-0.042-7.799,4.69-2.923,4.778c4.875,0.088,7.802,3.388,8.444,5.628C255.066,396.896,258.557,395.05,256.688,389.859
		L256.688,389.859z"/>
	<path fill-rule="evenodd" clip-rule="evenodd" fill="#6C8AC0" d="M256.563,390.085c-1.714-5.095-1.429-5.478-7.242-5.708
		c-5.814-0.231-7.75,4.279-2.975,4.18c4.774-0.099,7.446,3.26,7.912,5.729C254.724,396.754,258.277,395.18,256.563,390.085
		L256.563,390.085z"/>
	<path fill-rule="evenodd" clip-rule="evenodd" fill="#FFFFFF" d="M264.374,395.293c-9.823,6.887-30.872,6.675-40.804,0
		C237.171,399.49,250.772,399.624,264.374,395.293L264.374,395.293z"/>
	<polygon fill-rule="evenodd" clip-rule="evenodd" fill="#FFFFFF" points="232.605,384.552 234.228,385.996 235.751,384.284 
		234.129,382.84 232.605,384.552 	"/>
	<polygon fill-rule="evenodd" clip-rule="evenodd" fill="#FFFFFF" points="237.342,387.575 238.965,389.019 240.489,387.306 
		238.866,385.862 237.342,387.575 	"/>
	<polygon fill-rule="evenodd" clip-rule="evenodd" fill="#FFFFFF" points="241.038,383.693 242.661,385.138 244.185,383.425 
		242.562,381.981 241.038,383.693 	"/>
	<polygon fill-rule="evenodd" clip-rule="evenodd" fill="#FFFFFF" points="245.545,381.888 247.167,383.332 248.691,381.62 
		247.069,380.176 245.545,381.888 	"/>
	<polygon fill-rule="evenodd" clip-rule="evenodd" fill="#FFFFFF" points="250.503,383.874 252.125,385.318 253.649,383.606 
		252.027,382.162 250.503,383.874 	"/>
	<polygon fill-rule="evenodd" clip-rule="evenodd" fill="#FFFFFF" points="234.547,393.171 236.17,394.615 237.694,392.902 
		236.071,391.458 234.547,393.171 	"/>
	<polygon fill-rule="evenodd" clip-rule="evenodd" fill="#FFFFFF" points="227.967,391.817 229.59,393.261 231.114,391.549 
		229.491,390.104 227.967,391.817 	"/>
	<polygon fill-rule="evenodd" clip-rule="evenodd" fill="#FFFFFF" points="241.849,408.243 243.472,409.688 244.996,407.976 
		243.373,406.531 241.849,408.243 	"/>
	<polygon fill-rule="evenodd" clip-rule="evenodd" fill="#FFFFFF" points="247.798,404.904 249.421,406.349 250.945,404.636 
		249.323,403.191 247.798,404.904 	"/>
	<polygon fill-rule="evenodd" clip-rule="evenodd" fill="#FFFFFF" points="242.75,417.54 244.373,418.984 245.897,417.271 
		244.274,415.827 242.75,417.54 	"/>
	<polygon fill-rule="evenodd" clip-rule="evenodd" fill="#FFFFFF" points="223.503,408.57 224.709,409.644 225.842,408.371 
		224.636,407.298 223.503,408.57 	"/>
	<polygon fill-rule="evenodd" clip-rule="evenodd" fill="#FFFFFF" points="229.723,404.418 230.929,405.492 232.062,404.219 
		230.855,403.146 229.723,404.418 	"/>
	<polygon fill-rule="evenodd" clip-rule="evenodd" fill="#FFFFFF" points="228.46,413.534 229.667,414.607 230.8,413.335 
		229.594,412.262 228.46,413.534 	"/>
	<polygon fill-rule="evenodd" clip-rule="evenodd" fill="#FFFFFF" points="234.591,410.736 235.797,411.81 236.93,410.537 
		235.724,409.463 234.591,410.736 	"/>
	<polygon fill-rule="evenodd" clip-rule="evenodd" fill="#FFFFFF" points="234.5,417.325 235.707,418.398 236.84,417.126 
		235.633,416.052 234.5,417.325 	"/>
	<polygon fill-rule="evenodd" clip-rule="evenodd" fill="#FFFFFF" points="250.366,417.145 251.572,418.218 252.705,416.945 
		251.499,415.872 250.366,417.145 	"/>
	<polygon fill-rule="evenodd" clip-rule="evenodd" fill="#FFFFFF" points="256.586,414.256 257.792,415.33 258.925,414.057 
		257.718,412.983 256.586,414.256 	"/>
	<polygon fill-rule="evenodd" clip-rule="evenodd" fill="#FFFFFF" points="262.084,408.028 263.291,409.102 264.423,407.829 
		263.217,406.756 262.084,408.028 	"/>
	<polygon fill-rule="evenodd" clip-rule="evenodd" fill="#FFFFFF" points="256.946,404.509 258.153,405.582 259.286,404.31 
		258.079,403.235 256.946,404.509 	"/>
	<polygon fill-rule="evenodd" clip-rule="evenodd" fill="#FFFFFF" points="248.743,396.115 249.95,397.188 251.082,395.916 
		249.876,394.842 248.743,396.115 	"/>
	<polygon fill-rule="evenodd" clip-rule="evenodd" fill="#FFFFFF" points="243.154,392.233 244.36,393.307 245.493,392.034 
		244.287,390.961 243.154,392.233 	"/>
	<polygon fill-rule="evenodd" clip-rule="evenodd" fill="#FFFFFF" points="255.143,390.879 256.35,391.953 257.482,390.681 
		256.276,389.607 255.143,390.879 	"/>
	<polygon fill-rule="evenodd" clip-rule="evenodd" fill="#FFFFFF" points="249.782,409.598 251.404,411.042 252.929,409.329 
		251.306,407.885 249.782,409.598 	"/>
	<path fill="#FFFFFF" d="M223.257,400.729c0.273-0.038,0.349-0.344,0.257-0.994c-0.107-0.766-0.563-1.141-1.177-1.055
		c-0.435,0.062-0.68,0.337-0.876,0.846c-0.102,0.266-0.148,0.54-0.254,0.779c-0.061,0.137-0.192,0.235-0.344,0.257
		c-0.268,0.038-0.526-0.161-0.571-0.481c-0.047-0.336,0.082-0.563,0.388-0.745c0.079-0.048,0.141-0.063,0.132-0.125
		c-0.006-0.042-0.053-0.067-0.126-0.058l-0.184,0.026c-0.226,0.031-0.351,0.055-0.383,0.129c-0.045,0.097-0.07,0.336-0.021,0.688
		c0.091,0.65,0.503,0.994,1.018,0.922c0.404-0.057,0.662-0.313,0.83-0.791c0.165-0.468,0.254-0.779,0.392-0.911
		c0.084-0.081,0.195-0.135,0.31-0.15c0.352-0.05,0.606,0.161,0.658,0.533c0.03,0.21-0.021,0.42-0.151,0.642
		c-0.129,0.217-0.247,0.26-0.358,0.308c-0.121,0.055-0.193,0.075-0.183,0.144C222.63,400.796,222.833,400.789,223.257,400.729
		L223.257,400.729z M222.627,390.931l-0.983-0.264c-0.583-0.156-0.785-0.221-0.736-0.405c0.009-0.036,0.029-0.069,0.039-0.104
		c0.023-0.087-0.005-0.167-0.062-0.181c-0.061-0.017-0.122,0.005-0.141,0.077c-0.005,0.021-0.008,0.069-0.027,0.141l-0.022,0.082
		c-0.032,0.118-0.057,0.232-0.088,0.35c-0.042,0.159-0.102,0.362-0.171,0.618c-0.011,0.041-0.032,0.079-0.04,0.11
		c-0.022,0.082,0.026,0.127,0.113,0.151c0.077,0.021,0.122-0.088,0.188-0.333c0.032-0.118,0.091-0.113,0.434-0.021
		c0.501,0.134,0.941,0.317,1.366,0.431c0.409,0.11,0.694,0.131,0.962-0.027c0.243-0.149,0.473-0.493,0.596-0.954
		c0.184-0.686,0.211-1.095-0.19-1.422c-0.225-0.186-0.584-0.299-1.075-0.431l-0.144-0.039l-0.657-0.187l-0.194-0.052
		c-0.194-0.052-0.277-0.113-0.3-0.295c-0.019-0.153,0.011-0.266-0.086-0.292c-0.037-0.01-0.094,0.041-0.124,0.153
		c-0.024,0.087-0.049,0.223-0.099,0.407c-0.057,0.215-0.104,0.346-0.117,0.396c-0.033,0.124-0.018,0.193,0.038,0.208
		c0.097,0.026,0.131-0.162,0.308-0.373c0.048-0.058,0.115-0.062,0.218-0.035c0.046,0.012,0.076,0.026,0.086,0.029l1.045,0.296
		c0.565,0.162,0.931,0.271,1.088,0.483c0.137,0.185,0.172,0.524,0.063,0.933C223.739,391.037,223.379,391.132,222.627,390.931
		L222.627,390.931z M227.715,381.965l-0.853-0.803c-0.027-0.025-0.125-0.13-0.307-0.3l-0.34-0.318
		c-0.198-0.184-0.227-0.254,0.001-0.499c0.264-0.283,0.584-0.447,0.92-0.482c0.516-0.056,0.963,0.079,1.3,0.394
		c0.601,0.56,0.648,1.395,0.103,1.979c-0.271,0.291-0.514,0.318-0.765,0.083L227.715,381.965L227.715,381.965z M227.358,382.487
		c0.19,0.177,0.283,0.271,0.263,0.348c-0.034,0.113-0.22,0.258-0.107,0.363c0.039,0.036,0.096,0.023,0.157-0.042
		c0.04-0.042,0.179-0.231,0.461-0.533c0.253-0.271,0.485-0.482,0.652-0.66c0.773-0.83,0.771-1.846,0.089-2.482
		c-0.364-0.34-0.823-0.493-1.305-0.435c-0.653,0.079-1.089,0.492-1.642,1.085c-0.578,0.62-0.824,0.97-0.724,1.063
		c0.027,0.025,0.068,0.02,0.097-0.011c0.068-0.074,0.107-0.146,0.15-0.192c0.141-0.152,0.188-0.116,0.342,0.029l0.054,0.05
		L227.358,382.487L227.358,382.487z M235.089,376.585c-0.011,0.199-0.069,0.354-0.151,0.433c-0.108,0.101-0.19,0.14-0.162,0.208
		c0.016,0.04,0.033,0.039,0.063,0.027l0.024-0.01c0.034-0.014,0.248-0.111,0.68-0.287c0.078-0.032,0.166-0.055,0.245-0.087
		c0.088-0.036,0.104-0.065,0.075-0.14c-0.04-0.098-0.121-0.042-0.284-0.022c-0.082,0.01-0.146-0.021-0.166-0.07
		c-0.004-0.01-0.055-0.321-0.029-0.863c0.003-0.092,0.015-0.12,0.063-0.14l0.113-0.045l0.47-0.195
		c0.216-0.087,0.233-0.088,0.315,0.016l0.397,0.502c0.025,0.035,0.077,0.077,0.114,0.17c0.042,0.104-0.035,0.111-0.179,0.221
		c-0.061,0.048-0.078,0.077-0.054,0.136c0.018,0.044,0.047,0.073,0.101,0.051c0.01-0.004,0.068-0.044,0.181-0.09
		c0.58-0.234,0.924-0.356,1.018-0.395c0.06-0.023,0.089-0.047,0.067-0.102c-0.03-0.074-0.203,0.007-0.426-0.08
		c-0.143-0.057-0.267-0.235-0.463-0.453l-1.71-1.914c-0.072-0.08-0.104-0.13-0.139-0.116c-0.044,0.018-0.033,0.088-0.035,0.18
		L235.089,376.585L235.089,376.585z M235.348,375.218l0.01-0.57c0.002-0.149,0.019-0.236,0.048-0.248
		c0.03-0.012,0.058,0.017,0.102,0.067l0.459,0.529c0.031,0.033,0.051,0.054,0.054,0.063c0.022,0.054-0.018,0.082-0.097,0.114
		l-0.49,0.187c-0.035,0.014-0.061,0.007-0.068-0.012C235.352,375.314,235.346,375.271,235.348,375.218L235.348,375.218z
		 M244.395,374.343c-0.028,0.205-0.08,0.312-0.209,0.333c-0.184,0.032-0.308-0.011-0.317,0.094c-0.006,0.075,0.024,0.083,0.104,0.09
		c0.042,0.003,0.238,0.015,0.591,0.046c0.249,0.021,0.422,0.042,0.506,0.05c0.09,0.007,0.133-0.004,0.138-0.053
		c0.005-0.063-0.068-0.134-0.201-0.146c-0.021-0.002-0.042,0.001-0.064,0c-0.195-0.018-0.25-0.123-0.23-0.339l0.16-1.891
		l0.004-0.047c0.006-0.063,0.014-0.094,0.056-0.091c0.016,0.002,0.02,0.023,0.033,0.056l0.772,2.355
		c0.025,0.082,0.037,0.125,0.1,0.131c0.063,0.006,0.094-0.04,0.139-0.126l1.084-2.176c0.025-0.046,0.028-0.072,0.064-0.069
		c0.021,0.001,0.021,0.007,0.019,0.033l-0.004,0.048c-0.004,0.047-0.002,0.09-0.007,0.138c-0.004,0.042-0.012,0.079-0.015,0.11
		l-0.142,1.689c-0.001,0.016-0.013,0.084-0.023,0.206c-0.01,0.116-0.079,0.104-0.218,0.114c-0.145,0.008-0.225,0.012-0.233,0.107
		c-0.004,0.053,0.025,0.078,0.104,0.084c0.042,0.003,0.145-0.009,0.297,0.004c0.422,0.037,0.769,0.089,1.033,0.112
		c0.09,0.008,0.133,0.006,0.138-0.047c0.005-0.063-0.058-0.074-0.176-0.122c-0.164-0.067-0.257-0.107-0.286-0.142
		c-0.038-0.051-0.034-0.216-0.009-0.506c0.007-0.085,0.023-0.142,0.026-0.179l0.092-1.172c0.008-0.09,0.006-0.191,0.017-0.313
		c0.011-0.121,0.014-0.222,0.021-0.301c0.017-0.195,0.044-0.262,0.179-0.282c0.221-0.039,0.402,0.025,0.413-0.097
		c0.005-0.053-0.03-0.082-0.109-0.089c-0.032-0.003-0.144,0.003-0.334-0.013c-0.164-0.015-0.306-0.032-0.438-0.043
		c-0.243-0.021-0.287,0.001-0.441,0.296c-0.039,0.076-0.301,0.58-0.76,1.513c-0.072,0.148-0.08,0.243-0.154,0.237
		c-0.053-0.005-0.06-0.107-0.127-0.31l-0.551-1.665c-0.046-0.137-0.037-0.248-0.195-0.262c-0.042-0.004-0.111-0.004-0.217-0.014
		c-0.269-0.023-0.494-0.064-0.679-0.081c-0.074-0.006-0.112,0.011-0.117,0.064c-0.01,0.116,0.117,0.122,0.325,0.178
		c0.125,0.032,0.178,0.095,0.167,0.227l-0.01,0.116L244.395,374.343L244.395,374.343z M254.647,376.73
		c-0.177,0.307-0.234,0.396-0.506,0.24c-0.137-0.08-0.222-0.092-0.262-0.023c-0.029,0.051-0.003,0.122,0.07,0.165
		c0.138,0.079,0.27,0.137,0.384,0.204l1.433,0.846l0.115,0.066c0.073,0.042,0.137,0.048,0.16,0.019l0.41-0.456
		c0.018-0.02,0.033-0.036,0.043-0.054c0.029-0.05,0.022-0.091-0.019-0.115c-0.069-0.04-0.19,0.043-0.433,0.167
		c-0.162,0.078-0.414,0.048-0.712-0.124c-0.275-0.159-0.316-0.268-0.192-0.484l0.374-0.659c0.008-0.014,0.039-0.057,0.082-0.131
		c0.064-0.11,0.115-0.135,0.216-0.077c0.349,0.201,0.505,0.365,0.46,0.548c-0.039,0.173-0.136,0.257-0.031,0.318
		c0.042,0.024,0.082,0.017,0.106-0.024l0.519-0.845c0.037-0.064,0.035-0.114-0.006-0.138c-0.11-0.063-0.243,0.166-0.446,0.189
		c-0.128,0.011-0.276-0.062-0.488-0.184c-0.119-0.069-0.145-0.121-0.094-0.208l0.497-0.839c0.058-0.101,0.158-0.104,0.296-0.025
		c0.33,0.191,0.521,0.369,0.585,0.576c0.052,0.165-0.084,0.368,0.036,0.437c0.032,0.019,0.056,0.009,0.083-0.037l0.278-0.482
		c0.064-0.11,0.042-0.116-0.147-0.232l-1.34-0.804c-0.269-0.161-0.415-0.257-0.447-0.276c-0.069-0.039-0.109-0.044-0.135,0.001
		c-0.048,0.083,0.1,0.144,0.232,0.287c0.051,0.06,0.049,0.138-0.012,0.244c-0.016,0.027-0.034,0.048-0.047,0.071
		c-0.002,0.004-0.008,0.026-0.024,0.053L254.647,376.73L254.647,376.73z M262.231,381.979l-0.543,0.38
		c-0.213,0.149-0.34,0.226-0.437,0.189c-0.046-0.02-0.119-0.124-0.259-0.232c-0.054-0.04-0.084-0.045-0.123-0.018
		c-0.07,0.049-0.032,0.113,0.065,0.251c0.079,0.113,0.176,0.214,0.255,0.327c0.125,0.178,0.271,0.424,0.466,0.703
		c0.064,0.091,0.106,0.125,0.151,0.094c0.104-0.073-0.018-0.201-0.084-0.407c-0.032-0.101,0.007-0.147,0.103-0.214l0.729-0.53
		l0.021-0.016c0.139-0.097,0.226-0.093,0.302,0.016c0.106,0.152,0.082,0.311-0.083,0.621l-0.476,0.909
		c-0.103,0.195-0.174,0.225-0.049,0.403c0.064,0.091,0.145,0.17,0.206,0.257c0.106,0.152,0.165,0.273,0.205,0.329
		c0.07,0.1,0.131,0.121,0.175,0.091c0.065-0.046,0.033-0.101-0.02-0.213c-0.042-0.087-0.082-0.163-0.041-0.354
		c0.06-0.275,0.27-0.603,0.483-1.056c0.095-0.196,0.133-0.327,0.181-0.36c0.083-0.058,0.121,0.025,0.258,0.091
		c0.271,0.127,0.513,0.113,0.743-0.048c0.386-0.271,0.432-0.742,0.088-1.232c-0.2-0.287-0.415-0.538-0.597-0.798
		c-0.216-0.308-0.33-0.507-0.369-0.563c-0.042-0.061-0.088-0.08-0.128-0.053c-0.113,0.079,0.051,0.229,0.121,0.439
		c0.016,0.041-0.004,0.087-0.064,0.129c-0.026,0.019-0.06,0.035-0.086,0.053L262.231,381.979L262.231,381.979z M263.121,382.132
		l0.673-0.452c0.168-0.111,0.229-0.154,0.359,0.033c0.289,0.412,0.259,0.776-0.084,1.016c-0.412,0.289-0.707,0.172-1.057-0.328
		c-0.058-0.083-0.058-0.146-0.019-0.174l0.069-0.048C263.085,382.164,263.104,382.145,263.121,382.132L263.121,382.132z
		 M265.978,391.047c-0.357,0.076-0.513,0.109-0.586-0.238l-0.008-0.036c-0.02-0.093-0.054-0.129-0.127-0.114
		c-0.046,0.01-0.072,0.047-0.063,0.089c0.008,0.042,0.088,0.29,0.188,0.757c0.063,0.295,0.072,0.466,0.079,0.498l0.024,0.114
		c0.018,0.083,0.04,0.111,0.098,0.098c0.057-0.012,0.086-0.051,0.089-0.089c0.003-0.114-0.035-0.215,0.003-0.293
		c0.043-0.101,0.198-0.139,0.472-0.198l2.073-0.44c0.161-0.034,0.188-0.029,0.251,0.087c0.1,0.19,0.095,0.316,0.183,0.297
		c0.041-0.008,0.067-0.041,0.06-0.072c-0.005-0.026-0.059-0.177-0.123-0.478c-0.075-0.353-0.122-0.597-0.152-0.737
		c-0.024-0.114-0.056-0.162-0.123-0.147c-0.047,0.01-0.077,0.07-0.06,0.153c0.004,0.021,0.015,0.046,0.02,0.066
		c0.029,0.135-0.042,0.209-0.223,0.248l-0.12,0.025L265.978,391.047L265.978,391.047z M266.124,398.626
		c-0.272-0.038-0.43,0.234-0.521,0.885c-0.107,0.766,0.227,1.252,0.84,1.338c0.435,0.062,0.747-0.136,1.076-0.571
		c0.171-0.228,0.292-0.478,0.459-0.679c0.096-0.115,0.249-0.174,0.401-0.152c0.268,0.037,0.461,0.3,0.416,0.62
		c-0.047,0.336-0.233,0.519-0.578,0.609c-0.089,0.024-0.153,0.021-0.162,0.084c-0.006,0.042,0.032,0.079,0.105,0.09l0.184,0.025
		c0.226,0.032,0.353,0.044,0.404-0.019c0.07-0.081,0.16-0.304,0.209-0.655c0.092-0.65-0.21-1.094-0.724-1.166
		c-0.404-0.057-0.723,0.117-1.017,0.531c-0.287,0.404-0.459,0.679-0.627,0.769c-0.104,0.055-0.224,0.075-0.34,0.059
		c-0.352-0.05-0.538-0.322-0.486-0.694c0.029-0.21,0.136-0.398,0.322-0.575c0.185-0.172,0.309-0.182,0.429-0.196
		c0.131-0.02,0.206-0.02,0.215-0.088C266.746,398.735,266.549,398.686,266.124,398.626L266.124,398.626z"/>
	<polygon fill="#BCBEC0" points="276.214,402.437 393.252,402.437 393.252,403.194 276.214,403.194 276.214,402.437 	"/>
	<path fill="#BCBEC0" d="M287.162,405.704h-0.551v4.733c0,0.354-0.018,0.645-0.169,0.9c-0.213,0.362-0.604,0.574-1.084,0.574
		c-0.489,0-0.871-0.212-1.084-0.574c-0.178-0.31-0.178-0.688-0.178-1.201v-4.433h-0.551v4.839c0,1.228,0.631,1.874,1.813,1.874
		c1.164,0,1.804-0.646,1.804-1.874V405.704L287.162,405.704z M288.362,412.283h0.516v-3.71c0-0.344,0.471-0.785,1.013-0.785
		c0.711,0,0.755,0.433,0.755,1.228v3.268h0.516v-3.736c0-0.317,0.471-0.759,1.013-0.759c0.711,0,0.755,0.441,0.755,1.228v3.268
		h0.516v-3.436c0-1.024-0.311-1.536-1.129-1.536c-0.507,0-0.907,0.221-1.235,0.688c-0.169-0.441-0.542-0.688-1.049-0.688
		c-0.489,0-0.88,0.211-1.208,0.653v-0.53h-0.462V412.283L288.362,412.283z M296.414,409.687v0.804
		c-0.018,0.989-0.302,1.475-0.978,1.475c-0.436,0-0.711-0.335-0.711-0.883C294.726,410.34,295.277,410.119,296.414,409.687
		L296.414,409.687z M297.303,412.302v-0.381h-0.053c-0.311,0-0.32-0.15-0.32-0.539v-2.879c0-0.326-0.018-0.592-0.196-0.813
		c-0.204-0.256-0.542-0.371-1.022-0.371c-0.835,0-1.359,0.478-1.359,1.21v0.106h0.506c0.009-0.601,0.293-0.909,0.835-0.909
		c0.506,0,0.72,0.22,0.72,0.741v0.406c0,0.459-0.364,0.459-1.022,0.716c-0.827,0.317-1.208,0.697-1.208,1.492
		c0,0.839,0.426,1.344,1.146,1.344c0.436,0,0.8-0.169,1.067-0.496c0.106,0.282,0.284,0.417,0.542,0.417
		C297.054,412.347,297.169,412.328,297.303,412.302L297.303,412.302z M300.556,409.387v-0.045c0-1.042,0.329-1.571,0.916-1.571
		c0.542,0,0.871,0.485,0.871,1.403c0,0.063-0.009,0.142-0.009,0.213H300.556L300.556,409.387z M302.849,410.729h-0.524
		c-0.027,0.804-0.364,1.228-0.889,1.228c-0.586,0-0.88-0.618-0.88-1.863v-0.273h2.319v-0.406c0-1.387-0.488-2.094-1.395-2.094
		c-1.013,0-1.484,0.831-1.484,2.553c0,1.723,0.454,2.545,1.44,2.545C302.289,412.417,302.787,411.842,302.849,410.729
		L302.849,410.729z M303.871,412.283h0.516v-3.71c0-0.344,0.471-0.785,1.013-0.785c0.711,0,0.756,0.433,0.756,1.228v3.268h0.516
		v-3.736c0-0.317,0.471-0.759,1.013-0.759c0.711,0,0.755,0.441,0.755,1.228v3.268h0.517v-3.436c0-1.024-0.312-1.536-1.13-1.536
		c-0.506,0-0.906,0.221-1.235,0.688c-0.168-0.441-0.541-0.688-1.048-0.688c-0.489,0-0.879,0.211-1.208,0.653v-0.53h-0.462V412.283
		L303.871,412.283z M310.065,413.962h0.516v-2.111c0.24,0.397,0.577,0.584,1.031,0.584c1.013,0,1.493-0.857,1.493-2.58
		c0-1.731-0.427-2.535-1.467-2.535c-0.444,0-0.773,0.203-1.058,0.637v-0.521h-0.516V413.962L310.065,413.962z M310.581,409.881
		c0-1.422,0.24-2.119,0.995-2.119c0.711,0,0.969,0.671,0.969,2.093s-0.293,2.11-0.986,2.11
		C310.812,411.965,310.581,411.285,310.581,409.881L310.581,409.881z M314.092,412.283h0.516v-2.809c0-1.104,0.169-1.555,1.164-1.59
		v-0.521h-0.098c-0.507,0-0.845,0.186-1.066,0.601v-0.53h-0.516V412.283L314.092,412.283z M316.687,409.387v-0.045
		c0-1.042,0.329-1.571,0.915-1.571c0.543,0,0.871,0.485,0.871,1.403c0,0.063-0.009,0.142-0.009,0.213H316.687L316.687,409.387z
		 M318.979,410.729h-0.524c-0.026,0.804-0.364,1.228-0.889,1.228c-0.587,0-0.88-0.618-0.88-1.863v-0.273h2.319v-0.406
		c0-1.387-0.488-2.094-1.395-2.094c-1.014,0-1.484,0.831-1.484,2.553c0,1.723,0.453,2.545,1.439,2.545
		C318.42,412.417,318.917,411.842,318.979,410.729L318.979,410.729z M319.762,410.967v0.044c0,0.91,0.498,1.415,1.404,1.415
		c0.861,0,1.422-0.558,1.422-1.361c0-0.574-0.294-1.042-0.836-1.316c-0.844-0.433-1.395-0.653-1.395-1.271
		c0-0.45,0.293-0.724,0.772-0.724c0.472,0,0.729,0.291,0.809,0.9h0.489c-0.036-0.9-0.489-1.342-1.359-1.342
		c-0.738,0-1.2,0.485-1.2,1.174c0,0.742,0.293,0.989,0.942,1.325c0.764,0.397,1.244,0.591,1.244,1.263
		c0,0.548-0.338,0.892-0.898,0.892c-0.568,0-0.896-0.344-0.896-0.998H319.762L319.762,410.967z M325.36,409.687v0.804
		c-0.018,0.989-0.302,1.475-0.978,1.475c-0.436,0-0.711-0.335-0.711-0.883C323.672,410.34,324.224,410.119,325.36,409.687
		L325.36,409.687z M326.249,412.302v-0.381h-0.053c-0.312,0-0.32-0.15-0.32-0.539v-2.879c0-0.326-0.018-0.592-0.195-0.813
		c-0.204-0.256-0.542-0.371-1.022-0.371c-0.835,0-1.359,0.478-1.359,1.21v0.106h0.506c0.01-0.601,0.294-0.909,0.836-0.909
		c0.507,0,0.72,0.22,0.72,0.741v0.406c0,0.459-0.364,0.459-1.021,0.716c-0.827,0.317-1.209,0.697-1.209,1.492
		c0,0.839,0.427,1.344,1.146,1.344c0.436,0,0.8-0.169,1.066-0.496c0.106,0.282,0.284,0.417,0.542,0.417
		C326.001,412.347,326.116,412.328,326.249,412.302L326.249,412.302z M329.849,409.713l0.897-3.285l0.89,3.285H329.849
		L329.849,409.713z M328.667,412.283h0.516l0.568-2.066h2l0.56,2.066h0.561l-1.77-6.579h-0.648L328.667,412.283L328.667,412.283z
		 M334.186,408.609v-2.42h0.711c1.014,0,1.449,0.273,1.449,1.148c0,0.892-0.418,1.271-1.369,1.271H334.186L334.186,408.609z
		 M334.186,411.788v-2.693h0.818c1.039,0,1.537,0.397,1.537,1.289c0,1.033-0.498,1.404-1.582,1.404H334.186L334.186,411.788z
		 M333.635,412.283h1.396c1.413,0,2.088-0.592,2.088-1.899c0-0.786-0.337-1.271-1.075-1.563c0.587-0.256,0.862-0.742,0.862-1.502
		c0-1.2-0.666-1.615-2.097-1.615h-1.174V412.283L333.635,412.283z M338.141,412.283h0.551v-6.111l1.725,6.111h0.596l1.715-6.111
		v6.111h0.551v-6.579h-0.933l-1.636,5.811l-1.626-5.811h-0.942V412.283L338.141,412.283z M347.286,409.713l0.897-3.285l0.889,3.285
		H347.286L347.286,409.713z M346.104,412.283h0.517l0.568-2.066h2l0.56,2.066h0.56l-1.769-6.579h-0.648L346.104,412.283
		L346.104,412.283z M351.055,412.283h0.551v-6.111l1.725,6.111h0.595l1.716-6.111v6.111h0.551v-6.579h-0.933l-1.636,5.811
		l-1.626-5.811h-0.942V412.283L351.055,412.283z M357.96,408.733v-2.544h0.72c1.049,0,1.547,0.345,1.547,1.219
		c0,1.016-0.561,1.325-1.698,1.325H357.96L357.96,408.733z M357.409,412.283h0.551v-3.064H359c0.941,0,1.093,0.389,1.146,1.422
		c0.045,0.856,0.026,1.413,0.222,1.643h0.641c-0.356-0.345-0.276-0.972-0.338-1.882c-0.054-0.821-0.223-1.254-0.88-1.448
		c0.676-0.256,0.986-0.776,0.986-1.606c0-1.148-0.676-1.643-2.08-1.643h-1.288V412.283L357.409,412.283z M361.809,408.989
		c0,2.305,0.586,3.428,1.955,3.428c1.368,0,1.955-1.114,1.955-3.428s-0.587-3.418-1.955-3.418
		C362.395,405.571,361.809,406.684,361.809,408.989L361.809,408.989z M362.377,408.989c0-1.952,0.427-2.915,1.387-2.915
		s1.377,0.963,1.377,2.915c0,1.951-0.417,2.914-1.377,2.914S362.377,410.94,362.377,408.989L362.377,408.989z M369.451,408.733
		v-2.544h0.721c1.049,0,1.546,0.345,1.546,1.219c0,1.016-0.56,1.325-1.697,1.325H369.451L369.451,408.733z M368.9,412.283h0.551
		v-3.064h1.04c0.942,0,1.094,0.389,1.146,1.422c0.045,0.856,0.026,1.413,0.222,1.643h0.641c-0.355-0.345-0.275-0.972-0.338-1.882
		c-0.053-0.821-0.223-1.254-0.88-1.448c0.676-0.256,0.986-0.776,0.986-1.606c0-1.148-0.675-1.643-2.079-1.643H368.9V412.283
		L368.9,412.283z M373.433,412.283h3.04v-0.513h-2.488v-2.676h2.239v-0.503h-2.239v-2.376h2.488v-0.512h-3.04V412.283
		L373.433,412.283z M378.161,409.713l0.897-3.285l0.89,3.285H378.161L378.161,409.713z M376.979,412.283h0.516l0.568-2.066h2
		l0.56,2.066h0.561l-1.769-6.579h-0.649L376.979,412.283L376.979,412.283z M381.947,412.283h2.986v-0.495h-2.436v-6.084h-0.551
		V412.283L381.947,412.283z"/>
</g>
</svg>
